# xmcd
#
# Track frame offsets:
#	150
#	17222
#	34257
#	50417
#	68380
#	85515
#	102587
#	116967
#	133422
#	150200
#	167482
#	182977
#	198650
#	215982
#	232335
#
# Disc length: 3303 seconds
#
# Revision: 1
# Processed by: cddbd v1.5.1PL0 Copyright (c) Steve Scherf et al.
# Submitted via: audiograbber 1.83.01
#
DISCID=db0ce50f
DTITLE=Noda de Cajú - Volume V
DYEAR=1900
DGENRE=Forró
TTITLE0=Diz Que Me Ama
TTITLE1=Eu Me Enganei
TTITLE2=Bem Querer
TTITLE3=Você Minha Vida
TTITLE4=Teu Calor
TTITLE5=Um Sonho
TTITLE6=Amor e Prazer
TTITLE7=Atração Irresistivél
TTITLE8=Um SOnho QUe Sonhei
TTITLE9=Pura Atração
TTITLE10=Só Você Pra Mim
TTITLE11=Coração Vazio
TTITLE12=Solidão
TTITLE13=Fantasias de Amor
TTITLE14=Razão Para Viver
EXTD=
EXTT0=
EXTT1=
EXTT2=
EXTT3=
EXTT4=
EXTT5=
EXTT6=
EXTT7=
EXTT8=
EXTT9=
EXTT10=
EXTT11=
EXTT12=
EXTT13=
EXTT14=
PLAYORDER=
